<mxfile host="app.diagrams.net" modified="2024-05-22T08:29:38.452Z" agent="Mozilla/5.0 (Windows NT 10.0; Win64; x64) AppleWebKit/537.36 (KHTML, like Gecko) Chrome/124.0.0.0 Safari/537.36" etag="w9B-7wARGju2gdWZiHmB" version="24.4.4" type="github" pages="2">
  <diagram name="Page-1" id="_mMFNXKdZ_uoHCR8t7O9">
    <mxGraphModel dx="2182" dy="864" grid="1" gridSize="10" guides="1" tooltips="1" connect="1" arrows="1" fold="1" page="0" pageScale="1" pageWidth="827" pageHeight="1169" math="0" shadow="0">
      <root>
        <mxCell id="0" />
        <mxCell id="1" parent="0" />
        <mxCell id="jU_tTW6st1xBdKcAPlmk-5" value="User" style="swimlane;childLayout=stackLayout;horizontal=1;startSize=50;horizontalStack=0;rounded=1;fontSize=14;fontStyle=0;strokeWidth=2;resizeParent=0;resizeLast=1;shadow=0;dashed=0;align=center;arcSize=4;whiteSpace=wrap;html=1;gradientColor=none;swimlaneFillColor=none;" vertex="1" parent="1">
          <mxGeometry x="-940" y="-80" width="160" height="120" as="geometry" />
        </mxCell>
        <mxCell id="jU_tTW6st1xBdKcAPlmk-6" value="firstName&lt;div&gt;lastName&lt;/div&gt;&lt;div&gt;email&lt;/div&gt;&lt;div&gt;password&lt;/div&gt;" style="align=left;strokeColor=none;fillColor=none;spacingLeft=4;fontSize=12;verticalAlign=top;resizable=0;rotatable=0;part=1;html=1;" vertex="1" parent="jU_tTW6st1xBdKcAPlmk-5">
          <mxGeometry y="50" width="160" height="70" as="geometry" />
        </mxCell>
        <mxCell id="jU_tTW6st1xBdKcAPlmk-7" value="Role" style="swimlane;childLayout=stackLayout;horizontal=1;startSize=50;horizontalStack=0;rounded=1;fontSize=14;fontStyle=0;strokeWidth=2;resizeParent=0;resizeLast=1;shadow=0;dashed=0;align=center;arcSize=4;whiteSpace=wrap;html=1;gradientColor=none;swimlaneFillColor=none;" vertex="1" parent="1">
          <mxGeometry x="-610" y="-80" width="160" height="120" as="geometry" />
        </mxCell>
        <mxCell id="jU_tTW6st1xBdKcAPlmk-8" value="name&lt;div&gt;permission&lt;/div&gt;&lt;div&gt;&lt;br&gt;&lt;/div&gt;" style="align=left;strokeColor=none;fillColor=none;spacingLeft=4;fontSize=12;verticalAlign=top;resizable=0;rotatable=0;part=1;html=1;" vertex="1" parent="jU_tTW6st1xBdKcAPlmk-7">
          <mxGeometry y="50" width="160" height="70" as="geometry" />
        </mxCell>
        <mxCell id="jU_tTW6st1xBdKcAPlmk-9" value="" style="edgeStyle=entityRelationEdgeStyle;fontSize=12;html=1;endArrow=ERmandOne;startArrow=ERmandOne;rounded=0;entryX=0;entryY=0.25;entryDx=0;entryDy=0;exitX=1;exitY=0.5;exitDx=0;exitDy=0;" edge="1" parent="1" source="jU_tTW6st1xBdKcAPlmk-6" target="jU_tTW6st1xBdKcAPlmk-8">
          <mxGeometry width="100" height="100" relative="1" as="geometry">
            <mxPoint x="-740" y="100" as="sourcePoint" />
            <mxPoint x="-640" as="targetPoint" />
          </mxGeometry>
        </mxCell>
        <mxCell id="jU_tTW6st1xBdKcAPlmk-12" value="has" style="edgeLabel;html=1;align=center;verticalAlign=middle;resizable=0;points=[];" vertex="1" connectable="0" parent="jU_tTW6st1xBdKcAPlmk-9">
          <mxGeometry x="-0.1509" relative="1" as="geometry">
            <mxPoint y="1" as="offset" />
          </mxGeometry>
        </mxCell>
      </root>
    </mxGraphModel>
  </diagram>
  <diagram id="4kNGGjBUQx6ZxXrsISq1" name="Page-2">
    <mxGraphModel dx="1276" dy="603" grid="1" gridSize="10" guides="1" tooltips="1" connect="1" arrows="1" fold="1" page="1" pageScale="1" pageWidth="827" pageHeight="1169" math="0" shadow="0">
      <root>
        <mxCell id="0" />
        <mxCell id="1" parent="0" />
      </root>
    </mxGraphModel>
  </diagram>
</mxfile>
